<svg xmlns="http://www.w3.org/2000/svg" width="39.898" height="64" viewBox="0 0 39.898 64">
  <g id="cookbook-active" transform="translate(-96.413 0)">
    <g id="Group_604" data-name="Group 604" transform="translate(96.413 0)">
      <path id="Path_28" data-name="Path 28" d="M190.805,1.878A1.883,1.883,0,0,0,188.092.2l-20.22,10.11h22.933Z" transform="translate(-158.94 0)" fill="#fbf9f9"/>
      <path id="Path_29" data-name="Path 29" d="M214.947,238.892a6.169,6.169,0,0,0-5.866,4.283h11.732A6.169,6.169,0,0,0,214.947,238.892Z" transform="translate(-194.998 -209.032)" fill="#fbf9f9"/>
      <path id="Path_30" data-name="Path 30" d="M134.436,112.492H98.288a1.875,1.875,0,0,0-1.875,1.875v46.189a1.875,1.875,0,0,0,1.875,1.875h36.148a1.875,1.875,0,0,0,1.875-1.875V114.367a1.875,1.875,0,0,0-1.875-1.875ZM120.378,154.4h-8.033a1.875,1.875,0,0,1,0-3.75h8.033a1.875,1.875,0,0,1,0,3.75Zm6.025-8.033H106.321a1.875,1.875,0,0,1,0-3.75H126.4A1.875,1.875,0,0,1,126.4,146.365Zm0-10.041H106.321a1.875,1.875,0,0,1-1.875-1.875,1.917,1.917,0,0,1,2.189-1.875,9.933,9.933,0,0,1,7.853-7.853,1.9,1.9,0,1,1,3.75,0,9.933,9.933,0,0,1,7.853,7.853A1.886,1.886,0,1,1,126.4,136.324Z" transform="translate(-96.413 -98.431)" fill="#fbf9f9"/>
    </g>
  </g>
</svg>
