<svg xmlns="http://www.w3.org/2000/svg" viewBox="0 0 500 500"><g id="freepik--background-complete--inject-69"><polygon points="32.21 243.58 86.66 243.34 141.1 243.25 250 243.09 358.89 243.25 413.34 243.34 467.79 243.58 413.34 243.82 358.89 243.91 250 244.07 141.1 243.91 86.66 243.82 32.21 243.58" style="fill:#ebebeb"></polygon><polygon points="32.21 209.47 86.66 209.23 141.1 209.14 250 208.98 358.89 209.14 413.34 209.23 467.79 209.47 413.34 209.71 358.89 209.8 250 209.96 141.1 209.8 86.66 209.71 32.21 209.47" style="fill:#ebebeb"></polygon><polygon points="32.21 175.36 86.66 175.12 141.1 175.03 250 174.87 358.89 175.03 413.34 175.12 467.79 175.36 413.34 175.6 358.89 175.69 250 175.85 141.1 175.69 86.66 175.6 32.21 175.36" style="fill:#ebebeb"></polygon><polygon points="32.21 141.25 86.66 141.01 141.1 140.92 250 140.76 358.89 140.92 413.34 141.01 467.79 141.25 413.34 141.49 358.89 141.58 250 141.74 141.1 141.58 86.66 141.49 32.21 141.25" style="fill:#ebebeb"></polygon><polygon points="32.21 107.14 86.66 106.9 141.1 106.81 250 106.64 358.89 106.81 413.34 106.9 467.79 107.14 413.34 107.38 358.89 107.47 250 107.63 141.1 107.47 86.66 107.38 32.21 107.14" style="fill:#ebebeb"></polygon><polygon points="32.21 73.03 86.66 72.79 141.1 72.7 250 72.53 358.89 72.7 413.34 72.78 467.79 73.03 413.34 73.27 358.89 73.36 250 73.52 141.1 73.35 86.66 73.27 32.21 73.03" style="fill:#ebebeb"></polygon><polygon points="32.21 277.72 86.66 277.48 141.1 277.4 250 277.23 358.89 277.39 413.34 277.48 467.79 277.72 413.34 277.96 358.89 278.05 250 278.21 141.1 278.05 86.66 277.96 32.21 277.72" style="fill:#ebebeb"></polygon><polygon points="32.21 311.86 86.66 311.62 141.1 311.54 250 311.37 358.89 311.54 413.34 311.62 467.79 311.86 413.34 312.11 358.89 312.19 250 312.36 141.1 312.19 86.66 312.1 32.21 311.86" style="fill:#ebebeb"></polygon><polygon points="32.21 346 86.66 345.77 141.1 345.68 250 345.51 358.89 345.68 413.34 345.76 467.79 346 413.34 346.25 358.89 346.33 250 346.5 141.1 346.33 86.66 346.25 32.21 346" style="fill:#ebebeb"></polygon><polygon points="32.21 380.15 86.66 379.91 141.1 379.82 250 379.65 358.89 379.82 413.34 379.9 467.79 380.15 413.34 380.39 358.89 380.48 250 380.64 141.1 380.47 86.66 380.39 32.21 380.15" style="fill:#ebebeb"></polygon><rect x="32.21" y="277.23" width="435.58" height="34.14" style="fill:#dbdbdb"></rect><polygon points="287.19 35.7 287.45 75.26 287.55 104.94 287.73 293.64 287.55 353.01 287.45 382.7 287.19 412.39 286.93 382.7 286.83 353.01 286.66 293.64 286.84 104.94 286.93 75.26 287.19 35.7" style="fill:#ebebeb"></polygon><polygon points="250 35.7 250.26 75.26 250.36 104.94 250.54 293.64 250.36 353.01 250.26 382.7 250 412.39 249.74 382.7 249.64 353.01 249.46 293.64 249.64 104.94 249.74 75.26 250 35.7" style="fill:#ebebeb"></polygon><polygon points="212.81 35.7 213.07 75.26 213.16 104.94 213.34 293.64 213.16 353.01 213.07 382.7 212.81 412.39 212.54 382.7 212.45 353.01 212.27 293.64 212.45 104.94 212.55 75.26 212.81 35.7" style="fill:#ebebeb"></polygon><polygon points="175.62 35.7 175.88 75.26 175.97 104.94 176.15 293.64 175.97 353.01 175.88 382.7 175.62 412.39 175.35 382.7 175.26 353.01 175.08 293.64 175.26 104.94 175.35 75.26 175.62 35.7" style="fill:#ebebeb"></polygon><polygon points="398.77 35.7 399.03 75.26 399.13 104.94 399.31 293.64 399.13 353.01 399.03 382.7 398.77 412.39 398.51 382.7 398.41 353.01 398.23 293.64 398.41 104.94 398.51 75.26 398.77 35.7" style="fill:#ebebeb"></polygon><polygon points="361.58 35.7 361.84 75.26 361.93 104.94 362.11 293.64 361.94 353.01 361.84 382.7 361.58 412.39 361.31 382.7 361.22 353.01 361.04 293.64 361.22 104.94 361.32 75.26 361.58 35.7" style="fill:#ebebeb"></polygon><polygon points="324.38 35.7 324.65 75.26 324.74 104.94 324.92 293.64 324.74 353.01 324.65 382.7 324.38 412.39 324.12 382.7 324.03 353.01 323.85 293.64 324.03 104.94 324.12 75.26 324.38 35.7" style="fill:#ebebeb"></polygon><polygon points="435.96 35.7 436.22 75.26 436.32 104.94 436.5 293.64 436.32 353.01 436.23 382.7 435.96 412.39 435.7 382.7 435.61 353.01 435.43 293.64 435.61 104.94 435.7 75.26 435.96 35.7" style="fill:#ebebeb"></polygon><polygon points="398.77 35.7 399.03 75.26 399.13 104.94 399.31 293.64 399.13 353.01 399.03 382.7 398.77 412.39 398.51 382.7 398.41 353.01 398.23 293.64 398.41 104.94 398.51 75.26 398.77 35.7" style="fill:#ebebeb"></polygon><polygon points="138.42 35.7 138.68 75.26 138.78 104.94 138.96 293.64 138.78 353.01 138.69 382.7 138.42 412.39 138.16 382.7 138.06 353.01 137.89 293.64 138.07 104.94 138.16 75.26 138.42 35.7" style="fill:#ebebeb"></polygon><polygon points="101.23 35.7 101.49 75.26 101.59 104.94 101.77 293.64 101.59 353.01 101.49 382.7 101.23 412.39 100.97 382.7 100.87 353.01 100.69 293.64 100.87 104.94 100.97 75.26 101.23 35.7" style="fill:#ebebeb"></polygon><polygon points="64.04 35.7 64.3 75.26 64.39 104.94 64.57 293.64 64.39 353.01 64.3 382.7 64.04 412.39 63.77 382.7 63.68 353.01 63.5 293.64 63.68 104.94 63.78 75.26 64.04 35.7" style="fill:#ebebeb"></polygon><polygon points="309.15 160.1 450.37 160.1 454.91 54.18 304.6 54.18 309.15 160.1" style="fill:#ebebeb"></polygon><path d="M376.76,150.37H319.64l-3.71-85.94h60.83Zm-56.28-.87h55.41V65.3H316.83Z" style="fill:#dbdbdb"></path><path d="M371.6,121.92h-5.93v-31h5.93Zm-5.06-.86h4.2V91.79h-4.2Z" style="fill:#dbdbdb"></path><path d="M439.87,150.37H382.76V64.43h60.83Zm-56.24-.87H439l3.64-84.2H383.63Z" style="fill:#dbdbdb"></path><path d="M393.85,121.92h-5.94v-31h5.94Zm-5.07-.86H393V91.79h-4.2Z" style="fill:#dbdbdb"></path><rect x="41.37" y="101.02" width="97.96" height="7.54" style="fill:#c7c7c7"></rect><rect x="88.9" y="122.19" width="2.91" height="36.76" style="fill:#ebebeb"></rect><path d="M98.22,157.34H82.48l-.81,22H99Zm-11.17,19.4H85.42V160.48h1.63Zm4.11,0H89.54V160.48h1.62Zm4.12,0H93.65V160.48h1.63Z" style="fill:#ebebeb"></path><polygon points="93.5 125.8 87.39 125.8 86.78 103.03 94.11 103.03 93.5 125.8" style="fill:#a6a6a6"></polygon><path d="M91.44,106a1,1,0,1,1-2,0,1,1,0,0,1,2,0Z" style="fill:#fff"></path><rect x="119.67" y="122.19" width="2.91" height="29.58" style="fill:#ebebeb"></rect><path d="M129.46,160.32c0,6.18-4,11.85-8.33,11.85s-8.33-5.67-8.33-11.85a8.37,8.37,0,1,1,16.66,0Z" style="fill:#ebebeb"></path><polygon points="124.27 125.8 118.17 125.8 117.56 103.03 124.89 103.03 124.27 125.8" style="fill:#a6a6a6"></polygon><path d="M122.21,106a1,1,0,1,1-1-1A1,1,0,0,1,122.21,106Z" style="fill:#fff"></path><path d="M41.31,134.81V171h22.1V122.09H58.83v12.72Zm3.13,5a1.31,1.31,0,1,1,1.31,1.31A1.32,1.32,0,0,1,44.44,139.83Z" style="fill:#ebebeb"></path><polygon points="58.07 125.8 64.17 125.8 64.78 103.03 57.45 103.03 58.07 125.8" style="fill:#a6a6a6"></polygon><path d="M60.13,106a1,1,0,1,0,1-1A1,1,0,0,0,60.13,106Z" style="fill:#fff"></path><path d="M133.06,81.74c-2.37,0-4.57,2-6.78,2h-5.83V70.6H72.89V101h47.56V87.84h5.83c2.21,0,4.41,2,6.78,2,2.8,0,4.88-1.56,4.88-4.07S135.86,81.74,133.06,81.74Zm.64,5.59a1.53,1.53,0,1,1,1.53-1.52A1.53,1.53,0,0,1,133.7,87.33Z" style="fill:#dbdbdb"></path><path d="M85.72,86.25S79.45,98,78.24,99.56s-4.18,1.46-6,1.46h-15c-1.83,0-4.78.14-6-1.46s-7.48-13.31-7.48-13.31Z" style="fill:#a6a6a6"></path></g><g id="freepik--Shadow--inject-69"><ellipse cx="250" cy="450.28" rx="202.17" ry="12.69" style="fill:#ebebeb"></ellipse></g><g id="freepik--Floor--inject-69"><polygon points="32.21 413.67 86.66 413.43 141.1 413.34 250 413.18 358.89 413.34 413.34 413.43 467.79 413.67 413.34 413.92 358.89 414.01 250 414.17 141.1 414.01 86.66 413.92 32.21 413.67" style="fill:#263238"></polygon></g><g id="freepik--Character--inject-69"><path d="M163.53,170.42l-7,.43a21.48,21.48,0,0,1-2.71-12.77c.08-1-2.09,4.88-.84,13-7.38.45-17.42,1.06-26.19,1.51-.3-3.42-.73-6.58-.73-6.58a38.86,38.86,0,0,1-1.18,6.69c-1.2.07-2.38.11-3.5.17a135.45,135.45,0,0,0-1.2-14.57,46.81,46.81,0,0,1-3.79,14.8c-5.58.22-9.25.27-9,0,8.07-10,1.69-15.32,3.77-23.92,2.5-10.31,11.23-12.26,10.69-19.91-.43-6.23-1.63-17.51,6.15-20.22a15.19,15.19,0,0,1,16.35-3.77c12.63,4.3,8.42,23.71,9.41,27.59,1.42,5.54,4.15,7.41,6.37,13.71s-.51,10.76-.68,15.15S164.93,170.36,163.53,170.42Z" style="fill:#263238"></path><path d="M107.08,171.72a21.94,21.94,0,0,0,2.5-5.56,11.32,11.32,0,0,0-.24-5.85,58.82,58.82,0,0,1-1.25-6.13,16.15,16.15,0,0,1,.37-6.44,14.32,14.32,0,0,1,3.15-5.65,37.75,37.75,0,0,1,4.64-4.25,23.59,23.59,0,0,0,4.27-4.26,11.14,11.14,0,0,0,2-5.66,10.48,10.48,0,0,1-1.39,6.06,21.2,21.2,0,0,1-4.1,4.78,47.16,47.16,0,0,0-4.3,4.3,13.57,13.57,0,0,0-2.72,5.12,15.8,15.8,0,0,0-.37,5.83c.19,2,.63,4,1,6a21.82,21.82,0,0,1,.32,3.17,9,9,0,0,1-.59,3.19A17.7,17.7,0,0,1,107.08,171.72Z" style="fill:#263238"></path><path d="M151.65,112.16a31.23,31.23,0,0,1,2,7.37c.41,2.52.7,5,1,7.57l.41,3.77a19,19,0,0,0,.7,3.59,20.43,20.43,0,0,0,3.64,6.31,28.64,28.64,0,0,1,2.16,3.25A17.41,17.41,0,0,1,163,147.7a25.84,25.84,0,0,1,.69,3.86,16.31,16.31,0,0,1-.06,3.95c-.18,1.31-.5,2.55-.76,3.77a19.08,19.08,0,0,0-.45,3.68,7.79,7.79,0,0,0,3.3,6.32,7.9,7.9,0,0,1-4.09-6.3,19.44,19.44,0,0,1,.18-3.89c.18-1.28.45-2.51.54-3.72a20,20,0,0,0-.85-7.24,17.69,17.69,0,0,0-1.43-3.32,27,27,0,0,0-2.08-3.05c-.74-1-1.52-2.06-2.2-3.2a16.09,16.09,0,0,1-1.61-3.65,20.5,20.5,0,0,1-.64-3.89c-.12-1.28-.19-2.54-.26-3.81-.15-2.53-.26-5.06-.48-7.58A36.31,36.31,0,0,0,151.65,112.16Z" style="fill:#263238"></path><path d="M128.71,108.76c1.88-1.73,2.11-8-.69-10.8-3.87-3.9-12.19.46-10.52,6.42S127.26,110.1,128.71,108.76Z" style="fill:#263238"></path><path d="M120,97.89a11,11,0,0,1,5-1.72,4.43,4.43,0,0,1,2.42.57,4.25,4.25,0,0,1,1.64,1.84,9.8,9.8,0,0,1,.84,2.48,11.64,11.64,0,0,1,.28,2.63,9.05,9.05,0,0,1-1.55,5.07,7.85,7.85,0,0,0,2.25-5,11.27,11.27,0,0,0-.15-2.84,10.17,10.17,0,0,0-.88-2.72,5.16,5.16,0,0,0-2-2.16,5,5,0,0,0-2.89-.52A9.11,9.11,0,0,0,120,97.89Z" style="fill:#263238"></path><path d="M142.59,152.77c2.46,12.3,15.07,40.37,18.25,42,4.45,2.26,32.18,13.12,35.08,12,3.21-1.29,6.8-25.28,4.16-25.37-4.79-.17-29-8-31.52-9.65s-8.93-11.13-14-16.95C143.51,142.05,141.45,147,142.59,152.77Z" style="fill:#eb9481"></path><path d="M162.67,163.88,149,178.06s-6.32-18.64-7.45-27.37S147.68,142.49,162.67,163.88Z" style="fill:#455a64"></path><path d="M211.55,140.64l-35.8-13.53c-1.32-.5-26.82,29.82-36.42,55.2-9.78,25.87-3,41.79-3,41.79l40.57,15.34s15.09-9.08,24.4-33.7C209.63,183.78,212.87,141.14,211.55,140.64Z" style="fill:#FA832E"></path><path d="M177.88,141.84l-2.55-.92-1.27-.46-.63-.23-.31-.11-.16-.06h0s0,0,0,0l-.05.06c-1.11,1.4-2.11,2.9-3.13,4.38q-3,4.45-5.86,9.05c-3.81,6.09-7.41,12.32-10.6,18.75-1.59,3.21-3.09,6.48-4.4,9.8s-2.5,6.73-3.58,10.15-2.08,6.86-2.9,10.35a68.41,68.41,0,0,0-1.78,10.52l-.35-.52,7.88,3-.63.22a157.86,157.86,0,0,0,8.83-17.88c2.62-6.12,5-12.37,7.33-18.61Zm0,0c-4.4,12.61-8.83,25.21-13.42,37.75-2.28,6.28-4.56,12.56-7.18,18.72a157,157,0,0,1-8.83,18.06l-.21.37-.42-.16-7.9-3-.38-.14,0-.39a69.42,69.42,0,0,1,1.86-10.72c.85-3.51,1.86-7,3-10.41s2.33-6.83,3.64-10.19,2.88-6.63,4.53-9.84c3.29-6.42,7-12.61,10.88-18.67q3-4.51,6.09-8.92c1.06-1.46,2.09-2.92,3.26-4.32l.06-.06a.15.15,0,0,1,.1,0h0l.16.06.32.13.63.25,1.26.5Z" style="opacity:0.2"></path><path d="M191,146.8l-2.53-.91-1.25-.45-.63-.23-.31-.11-.15-.06-.08,0c.08,0,0,0,0,0-.85,1.54-1.6,3.17-2.37,4.77q-2.28,4.83-4.47,9.71-4.43,9.72-8.51,19.59c-2.71,6.59-5.3,13.21-7.56,20-1.13,3.37-2.2,6.76-3.17,10.18a101.58,101.58,0,0,0-2.44,10.32l-.34-.58,7.88,3-.66.26c2.88-6,5.47-12.17,8-18.35s4.93-12.4,7-18.73,4.09-12.71,6-19.11S189.23,153.24,191,146.8Zm0,0c-3.26,13-6.7,25.88-10.8,38.62q-1.53,4.77-3.27,9.49t-3.62,9.35c-2.48,6.21-5,12.39-7.92,18.45l-.2.43-.46-.17-7.9-3-.42-.15.08-.43A101.47,101.47,0,0,1,159,209c1-3.43,2.08-6.83,3.24-10.21q3.47-10.12,7.71-20c2.8-6.55,5.75-13,8.8-19.49q2.3-4.83,4.7-9.6c.82-1.59,1.59-3.19,2.51-4.74,0,0,0-.08.14-.08l.08,0,.16.06.31.13.63.24,1.24.5Z" style="opacity:0.2"></path><path d="M199.19,149.9l2.53.92,1.27.45.64.23.32.12.16.06,0,0a.14.14,0,0,1,.05.1v.09c-.05,1.81-.24,3.6-.41,5.39q-.56,5.37-1.34,10.72c-1.08,7.12-2.41,14.21-4.18,21.2-.89,3.49-1.89,7-3.11,10.37s-2.57,6.74-4,10.05-3,6.58-4.67,9.77a68,68,0,0,1-5.7,9.28l-.23.31-.38-.15-7.89-3-.41-.16.08-.42a158.56,158.56,0,0,1,5.32-19.38c2.11-6.35,4.56-12.57,7-18.78C189.14,174.64,194.15,162.26,199.19,149.9Zm0,0L185,187.37c-2.34,6.25-4.73,12.48-6.82,18.81a158.55,158.55,0,0,0-5.2,19.24l-.33-.58,7.89,3L180,228a71,71,0,0,0,5.63-9.07c1.68-3.16,3.23-6.4,4.67-9.69s2.78-6.61,4-10,2.25-6.8,3.18-10.26c1.86-6.94,3.29-14,4.46-21.08.6-3.54,1.14-7.1,1.59-10.66.21-1.78.45-3.58.55-5.36v-.07s0,0,0,0,0,0,0,0l-.16-.06-.31-.12-.62-.25-1.25-.5Z" style="opacity:0.2"></path><rect x="178.49" y="127.56" width="32.64" height="6.53" transform="translate(58.84 -60.43) rotate(20.71)" style="fill:#c7c7c7"></rect><rect x="184.28" y="121.45" width="25.67" height="6.53" transform="translate(56.83 -61.64) rotate(20.71)" style="fill:#dbdbdb"></rect><polygon points="203.03 123.46 193.51 119.86 203.72 101.84 207.29 103.19 203.03 123.46" style="fill:#ebebeb"></polygon><path d="M179.7,128.17a7.44,7.44,0,0,1,.28-1.42l.45-1.36.6-1.31.35-.63.42-.6-.11.72-.17.7-.45,1.36-.6,1.3A8.83,8.83,0,0,1,179.7,128.17Z" style="fill:#a6a6a6"></path><path d="M182,129.06a8.23,8.23,0,0,1,.28-1.43l.45-1.36.6-1.3.35-.63.42-.61-.1.73-.18.7-.45,1.35-.6,1.31A9.06,9.06,0,0,1,182,129.06Z" style="fill:#a6a6a6"></path><path d="M184.38,129.94a9.39,9.39,0,0,1,.28-1.42l.46-1.36.59-1.3.36-.64.42-.6-.11.72-.17.7-.46,1.36-.6,1.3A7.3,7.3,0,0,1,184.38,129.94Z" style="fill:#a6a6a6"></path><path d="M186.73,130.83a7.54,7.54,0,0,1,.28-1.43l.45-1.36.6-1.3.35-.63.42-.61-.11.73-.17.7-.45,1.36-.6,1.3A10.15,10.15,0,0,1,186.73,130.83Z" style="fill:#a6a6a6"></path><path d="M189.07,131.71a8.3,8.3,0,0,1,.28-1.42l.45-1.36.6-1.3.35-.63.42-.61-.1.72-.18.7-.45,1.36-.6,1.3A8,8,0,0,1,189.07,131.71Z" style="fill:#a6a6a6"></path><path d="M191.41,132.6a9.52,9.52,0,0,1,.28-1.43l.45-1.35.6-1.31.36-.63.42-.61-.11.73-.17.7-.46,1.36-.6,1.3A8.18,8.18,0,0,1,191.41,132.6Z" style="fill:#a6a6a6"></path><path d="M193.76,133.48a7.44,7.44,0,0,1,.28-1.42l.45-1.36.6-1.3.35-.63.42-.61-.11.73-.17.69-.45,1.36-.6,1.31A9.34,9.34,0,0,1,193.76,133.48Z" style="fill:#a6a6a6"></path><path d="M196.1,134.37a8.3,8.3,0,0,1,.28-1.42l.45-1.36.6-1.31.35-.63.42-.6-.1.72-.18.7-.45,1.36-.6,1.3A8,8,0,0,1,196.1,134.37Z" style="fill:#a6a6a6"></path><path d="M198.44,135.25a8.3,8.3,0,0,1,.28-1.42l.45-1.36.6-1.3.35-.63.42-.61-.1.73-.18.7-.45,1.35-.6,1.31A7.63,7.63,0,0,1,198.44,135.25Z" style="fill:#a6a6a6"></path><path d="M200.78,136.14a8.31,8.31,0,0,1,.29-1.42l.45-1.36.6-1.3.35-.64.42-.6-.11.72-.17.7-.45,1.36-.6,1.3A8.05,8.05,0,0,1,200.78,136.14Z" style="fill:#a6a6a6"></path><path d="M203.13,137a7.54,7.54,0,0,1,.28-1.43l.45-1.36.6-1.3.35-.63.42-.61-.11.73-.17.7-.45,1.36-.6,1.3A10.15,10.15,0,0,1,203.13,137Z" style="fill:#a6a6a6"></path><path d="M205.47,137.91a8.3,8.3,0,0,1,.28-1.42l.45-1.36.6-1.3.35-.63.42-.61-.1.72-.18.7-.45,1.36-.6,1.3A8,8,0,0,1,205.47,137.91Z" style="fill:#a6a6a6"></path><path d="M207.81,138.8a9.52,9.52,0,0,1,.28-1.43l.46-1.35.59-1.31.36-.63.42-.6-.11.72-.17.7-.46,1.36-.6,1.3A8.18,8.18,0,0,1,207.81,138.8Z" style="fill:#a6a6a6"></path><path d="M210.21,176c.68,4.27,3.79,10.24,3.26,13.41a3.67,3.67,0,0,1-3.06,3.15s2.61,2.42,1.65,5.22c-.49,1.44-3.22,1.91-3.22,1.91a4.41,4.41,0,0,1,1,4.47c-.8,1.94-3.42,2.12-3.42,2.12s1,2.85-.43,4.56c-2.94,3.48-20.21-1.6-21-8.74-.37-3.33,3.78-1.87,3.78-1.87s-5.46-3.55-4.51-7.14,6.24-1.35,6.24-1.35-5.26-3.49-3.9-7.11,6.32-.63,6.32-.63-3.07-3.73-1.39-6.26c2.77-4.18,8.34,3.74,12.4,3.95l3.94-5.64Z" style="fill:#eb9481"></path><path d="M212.08,182.43c-.29-4.09,5.62-7.31,5.91-11.27.39-5.35-6.73-2.08-10.13,4.86l-1.7,5.85Z" style="fill:#eb9481"></path><path d="M206,206.34a.05.05,0,0,1,0,.1,31.24,31.24,0,0,1-17.48-6.29c-.15-.12,0-.43.18-.33A63.78,63.78,0,0,0,206,206.34Z" style="fill:#263238"></path><path d="M208.91,199.73c.07,0,.05.12,0,.12a29.29,29.29,0,0,1-18.64-8c-.17-.18-.15-.51.06-.32C193.88,194.6,203.21,198.57,208.91,199.73Z" style="fill:#263238"></path><path d="M192.66,183.49c5,4.66,11,7.26,17.49,9a.07.07,0,0,1,0,.14c-3.43,0-7.47-1.57-10.51-3.06a18,18,0,0,1-7.11-6C192.43,183.56,192.56,183.39,192.66,183.49Z" style="fill:#263238"></path><path d="M121.79,196.53s21.58,108.36,23.1,116.36c.35,1.82-.9,98.82-.9,98.82h40.1S188,327,186,311s-26.37-114.47-26.37-114.47Z" style="fill:#eb9481"></path><path d="M121.79,196.53s10.5,52.74,17.37,87.35l20.49-87.35Z" style="fill:#263238"></path><polygon points="173.25 250.71 130.61 255.83 121.79 196.53 159.65 196.53 173.25 250.71" style="fill:#263238"></polygon><path d="M132.21,247.65c4.56-.91,9.18-1.47,13.79-2s9.14-1,13.72-1.48c2.61-.27,5.24-.53,7.87-.67a.13.13,0,1,1,0,.25c-4.56.85-9.19,1.38-13.8,2s-9.12,1.17-13.69,1.66c-2.62.28-5.24.5-7.88.61A.18.18,0,1,1,132.21,247.65Z" style="fill:#37474f"></path><path d="M127.69,200q4.76,17,9.07,34.18.6,2.4,1.18,4.82a46.9,46.9,0,0,1,1.06,5c0,.1-.11.13-.15,0a84.26,84.26,0,0,1-2.49-8.58c-.76-2.84-1.49-5.68-2.23-8.53-1.46-5.68-2.93-11.37-4.31-17.08q-1.19-4.87-2.34-9.77A.11.11,0,1,1,127.69,200Z" style="fill:#263238"></path><path d="M213.75,448.46c-2.21.73-65.44.55-67.85-1-.91-.57-1.42-9.79-1.72-20.94-.07-2.4-.12-4.88-.16-7.42-.05-3-.09-6-.11-8.95-.07-13.21.11-24.84.11-24.84h41.17l0,24.84v8.95l-.22,7.42s24.18,10.91,26.64,12.87S216,447.73,213.75,448.46Z" style="fill:#eb9481"></path><path d="M213.75,448.46c-2.21.73-65.44.55-67.85-1-.91-.57-1.42-9.79-1.72-20.94-.07-2.4-.12-4.88-.16-7.42-.05-3-.09-6-.11-8.95h41.26v8.95l-.22,7.42s24.18,10.91,26.64,12.87S216,447.73,213.75,448.46Z" style="fill:#fff"></path><path d="M214,448.55c-1.45.48-28.38.57-48,.17-4.54-.1-8.69-.23-12-.37-4.61-.21-7.71-.47-8.21-.78-1.11-.72-1.64-14.25-1.9-28.52h41.37l-.21,7.46s24.31,11,26.79,12.94S216.16,447.81,214,448.55Z" style="fill:#FA832E"></path><path d="M213,446c-10.66-.3-53.67-.47-64.23.05-.09,0-.09.06,0,.07,10.56.52,53.57.34,64.23.05C213.26,446.17,213.26,446,213,446Z" style="fill:#263238"></path><path d="M186.48,424.15c-4.19-.79-9.32-.16-12.53,2.81-.13.12,0,.3.17.25a58.92,58.92,0,0,1,12.34-2.53A.27.27,0,0,0,186.48,424.15Z" style="fill:#263238"></path><path d="M189.5,426c-4.19-.8-9.32-.17-12.53,2.81-.13.11,0,.29.17.25a59,59,0,0,1,12.35-2.54A.26.26,0,0,0,189.5,426Z" style="fill:#263238"></path><path d="M192.53,427.82c-4.19-.8-9.33-.17-12.54,2.81-.12.12,0,.29.18.25a58.92,58.92,0,0,1,12.34-2.53A.27.27,0,0,0,192.53,427.82Z" style="fill:#263238"></path><path d="M195.55,429.65c-4.19-.79-9.32-.16-12.54,2.81-.12.12,0,.3.18.25a58.92,58.92,0,0,1,12.34-2.53A.27.27,0,0,0,195.55,429.65Z" style="fill:#263238"></path><path d="M194.26,414.47c-1.64-2.27-4.72-1.26-6.47.21a22.37,22.37,0,0,0-6.49,9.59.11.11,0,0,0,.1.15.52.52,0,0,0,.66.52c3.46-1.27,7.33-2.2,10.3-4.5C194.1,419.1,195.81,416.63,194.26,414.47Zm-7.34,7.47c-1.69.67-3.4,1.25-5.07,2a66.31,66.31,0,0,1,3.91-5.52A25.34,25.34,0,0,1,188,416c1.25-1.13,6.2-3.53,5.45,1.07C193,419.61,188.93,421.14,186.92,421.94Z" style="fill:#263238"></path><path d="M170.64,423.14c3.46,1.48,7.43,1.42,11.11,1.79a.52.52,0,0,0,.5-.67.12.12,0,0,0,.06-.18,22.36,22.36,0,0,0-8.68-7.66c-2.06-1-5.29-1.2-6.31,1.42S168.63,422.27,170.64,423.14Zm-1.88-3c-1.88-4.27,3.51-3.18,5-2.4a24.75,24.75,0,0,1,2.75,1.77,67.31,67.31,0,0,1,5.17,4.36c-1.8-.29-3.6-.42-5.4-.65C174.14,423,169.79,422.5,168.76,420.15Z" style="fill:#263238"></path><path d="M164.3,448.68c-3.89-.1-7.44-.2-10.37-.33-4.62-.21-7.71-.46-8.22-.79-.84-.54-1.35-8.45-1.67-18.46Z" style="opacity:0.1"></path><path d="M125.76,415.06l-41.11-3.35s8-62,8.76-74c.37-6.08,6.72-72.17,10.24-101.44,0,0-6.68-15.85,5.83-39.79h50.21s-3.37,22.78-9.13,37.23a53.71,53.71,0,0,0-10.51,4.73s-4.34,93.46-6.21,107.74C131.55,363.71,125.76,415.06,125.76,415.06Z" style="fill:#eb9481"></path><path d="M139.32,256.15H99.88l3-19.87s-6-20.17,5.72-39.79h51.1s-2.12,21.37-8.39,37.44l-6.41,2.85Z" style="fill:#263238"></path><path d="M144.89,236.78c0-.25.56-.25.51,0-2.07,11.72-5.35,17.39-5.59,17.92a.08.08,0,0,1-.15,0C139.48,254.15,144,241.64,144.89,236.78Z" style="fill:#37474f"></path><path d="M152.47,233.14a83.42,83.42,0,0,0-13.07,6.08c-.16.09-.06.35.12.27,4.4-1.89,8.89-3.7,13.18-5.83A.28.28,0,0,0,152.47,233.14Z" style="fill:#37474f"></path><path d="M153.86,202.93c0-.15-.27-.18-.27,0,0,5.23-.3,9.83-.74,14.71-.21,2.27-2,14.8-6,13.88-.66-.15-1-.8-1.1-1.79a16.28,16.28,0,0,1,.52-3.84c.44-2.63.79-5.26,1-7.91a72,72,0,0,0-.16-14.82.13.13,0,0,0-.26,0,134.66,134.66,0,0,1-1.2,20.47c-.49,3.26-2.13,8.16,1.28,8.66s5.72-7.7,6.14-9.95A75,75,0,0,0,153.86,202.93Z" style="fill:#37474f"></path><path d="M147,231.84a21.48,21.48,0,0,0-.88,2.6,5.8,5.8,0,0,0-.37,2.13.15.15,0,0,0,.27.06,7.49,7.49,0,0,0,.92-2.08c.3-.8.61-1.6.89-2.41A.44.44,0,0,0,147,231.84Z" style="fill:#37474f"></path><path d="M110.4,218.26c3.72-.37,7.54-.32,11-2s5.73-5,7.52-8.34a27.78,27.78,0,0,0,2.47-6.54c0-.1.18-.07.18,0A18.33,18.33,0,0,1,130,207.6a27.4,27.4,0,0,1-3,5.46,13.25,13.25,0,0,1-4.24,4,14.76,14.76,0,0,1-5.57,1.68,31,31,0,0,1-6.88,0A.22.22,0,0,1,110.4,218.26Z" style="fill:#37474f"></path><path d="M105.29,240.47a35.41,35.41,0,0,0,1.11-5.55c.1-1.86-.89-3.47-1.45-5.18-2.18-6.68-1.3-14,1.08-20.47a74.42,74.42,0,0,1,5.13-10.69c0-.09.18,0,.14.08C108,205,105.17,211.79,104.53,219a27.29,27.29,0,0,0,1,10.29c.48,1.58,1.39,3.1,1.53,4.76a17.31,17.31,0,0,1-.82,5.18c-.47,2.08-1.93,8.35-2.57,10.46-.05.18-.37.15-.34,0C103.57,247.73,104.86,242.39,105.29,240.47Z" style="fill:#37474f"></path><path d="M102.45,251c4.63-.34,9.29-.33,13.94-.29s9.19.11,13.79.21c2.63.06,5.27.12,7.89.3a.13.13,0,1,1,0,.25c-4.63.28-9.29.25-13.93.28s-9.2.05-13.8,0c-2.64,0-5.26-.14-7.89-.36A.18.18,0,1,1,102.45,251Z" style="fill:#37474f"></path><path d="M150.6,458.93c-2.27.54-65.24-5.18-67.51-6.91-.85-.65-.56-9.88.12-21q.21-3.6.5-7.4c.21-3,.44-6,.67-8.93,1.08-13.17,3.17-25.79,3.17-25.79l40.12,4.66-2.19,24.74-.8,8.92-.86,7.37s23.13,13,25.41,15.15S152.86,458.4,150.6,458.93Z" style="fill:#eb9481"></path><path d="M150.6,458.93c-2.27.54-65.24-5.18-67.51-6.91-.85-.65-.56-9.88.12-21q.21-3.6.5-7.4c.21-3,.44-6,.67-8.93l41.1,3.61-.8,8.92-.86,7.37s23.13,13,25.41,15.15S152.86,458.4,150.6,458.93Z" style="fill:#fff"></path><path d="M150.79,459.05c-1.48.34-28.32-1.92-47.82-4-4.51-.5-8.64-1-12-1.42-4.58-.62-7.64-1.14-8.11-1.5-1.05-.81-.39-14.33.61-28.57l41.21,3.62-.87,7.42s23.26,13,25.55,15.23S153.06,458.5,150.79,459.05Z" style="fill:#FA832E"></path><path d="M150.11,456.43c-10.6-1.22-53.43-5.16-64-5.57-.09,0-.09.06,0,.07,10.47,1.44,53.34,5,64,5.67C150.32,456.62,150.33,456.46,150.11,456.43Z" style="fill:#263238"></path><path d="M125.56,432.33c-4.1-1.15-9.27-1-12.73,1.71-.14.1,0,.29.15.26a59.21,59.21,0,0,1,12.52-1.44A.27.27,0,0,0,125.56,432.33Z" style="fill:#263238"></path><path d="M128.41,434.43c-4.1-1.16-9.27-1-12.73,1.7-.13.1,0,.29.15.26A59.21,59.21,0,0,1,128.35,435,.26.26,0,0,0,128.41,434.43Z" style="fill:#263238"></path><path d="M131.27,436.52c-4.11-1.16-9.28-1-12.74,1.7-.13.11,0,.29.15.26A59.21,59.21,0,0,1,131.2,437,.27.27,0,0,0,131.27,436.52Z" style="fill:#263238"></path><path d="M134.11,438.61c-4.1-1.16-9.27-1-12.73,1.7-.13.11,0,.29.15.26a59.87,59.87,0,0,1,12.52-1.44A.26.26,0,0,0,134.11,438.61Z" style="fill:#263238"></path><path d="M134.16,423.38c-1.44-2.41-4.59-1.68-6.46-.37a22.46,22.46,0,0,0-7.31,9,.12.12,0,0,0,.09.16c0,.31.24.68.61.58,3.56-1,7.49-1.56,10.65-3.59C133.59,428,135.52,425.65,134.16,423.38Zm-8,6.79c-1.74.52-3.5.94-5.22,1.53,1.43-1.75,2.78-3.55,4.38-5.16a26.54,26.54,0,0,1,2.43-2.19c1.35-1,6.49-3,5.33,1.54C132.48,428.38,128.27,429.55,126.19,430.17Z" style="fill:#263238"></path><path d="M109.88,429.94c3.3,1.78,7.27,2.07,10.9,2.75.37.07.6-.31.56-.62a.12.12,0,0,0,.07-.17,22.37,22.37,0,0,0-8-8.39c-2-1.16-5.17-1.66-6.41.85S107.94,428.9,109.88,429.94Zm-1.62-3.15c-1.5-4.41,3.78-2.85,5.2-1.94a22.63,22.63,0,0,1,2.59,2,65.33,65.33,0,0,1,4.76,4.8c-1.76-.45-3.54-.74-5.32-1.12C113.37,430.07,109.08,429.23,108.26,426.79Z" style="fill:#263238"></path><path d="M158.94,190.26l1.92,12.1-52.66-.11s1.51-38.86,16.24-53.93c7.37-7.54,15.74-6.71,20.91-1.13,1.32,1.41,16.8,20.47,18.26,28.66C164.88,183.08,158.94,190.26,158.94,190.26Z" style="fill:#dbdbdb"></path><path d="M150.1,186.41a57.22,57.22,0,0,0-8.32,1.44c-1.35.36-2.68.78-4,1.23-.66.22-1.32.42-2,.62a8.82,8.82,0,0,1-2.15.43c-.06,0-.06.1,0,.1a15.7,15.7,0,0,0,2.06-.06,14.3,14.3,0,0,0,2-.39c1.38-.35,2.74-.77,4.11-1.13,2.77-.74,5.54-1.48,8.36-2C150.27,186.61,150.24,186.39,150.1,186.41Z" style="fill:#263238"></path><path d="M157.06,188.83a62.2,62.2,0,0,0-7-.27c-1.17,0-2.32.11-3.48.24-.55,0-1.1.12-1.65.2s-1.2.24-1.81.32a.05.05,0,0,0,0,.1c.58,0,1.16,0,1.74,0l1.74-.06,3.47-.12c2.32-.09,4.63-.17,7-.19C157.19,189,157.18,188.84,157.06,188.83Z" style="fill:#263238"></path><path d="M127.54,155.83c-3.78,6.41-21.91,31.81-22.51,34.19s4.06,7,4.06,8c0,3.9-8.51,27.78-12.11,25.49-4.73-3-22.06-22.66-20.46-33.58s41.94-40,48.62-42.94S131.27,149.5,127.54,155.83Z" style="fill:#eb9481"></path><path d="M115.66,230.89c2.5-2.62-2-4.07-2-4.07s7,.51,8.54-3.19-4.06-5.12-4.46-5.24c.37,0,6.83.32,8-3.55,1.2-4-4.61-4.64-5-4.68.36-.09,5.06-1.32,5.27-4.47.35-5.41-13.42-3-17-5.48,0,0-.15-7-.09-7.21,0,0-.92,2.95-3.16,4.14-2.76,1.48-5.32,2.54-6.21,4.22a4,4,0,0,0,.57,4.7s-3.82.39-4.83,3.41c-.51,1.55,1.52,3.76,1.52,3.76s-3,.43-3.77,3.18c-.59,2.18,1.54,4.05,1.54,4.05s-2.74,1.78-2.61,4.21C92.15,229.57,110.31,236.5,115.66,230.89Z" style="fill:#eb9481"></path><path d="M94.8,220.81a.05.05,0,0,0-.06.09,33.81,33.81,0,0,0,19.13,6c.22,0,.31-.36.07-.4A69.28,69.28,0,0,1,94.8,220.81Z" style="fill:#263238"></path><path d="M96.64,213.23c-.07,0-.13.08-.06.12,5.6,3.82,13.67,6.36,21.28,5.29.26,0,.45-.34.15-.32C112.9,218.65,102.29,216,96.64,213.23Z" style="fill:#263238"></path><path d="M121.22,209.9c-7.34.75-14.17-.93-21-3.66-.09,0-.13.09-.06.14,3,2.24,7.45,3.53,11,4.24a19.38,19.38,0,0,0,10-.46C121.37,210.12,121.37,209.89,121.22,209.9Z" style="fill:#263238"></path><path d="M94.31,220.49c-1.34-1.1-2.43-2.61-2.08-4.44a3.53,3.53,0,0,1,1.3-2.07,6.14,6.14,0,0,1,2.74-.87,4.59,4.59,0,0,1-1.18-5A3.48,3.48,0,0,1,97,206.43a11.75,11.75,0,0,1,3-.52,4,4,0,0,1-1.61-3.27,4.43,4.43,0,0,1,2-3.46,20.69,20.69,0,0,1,4.38-2.08,10.24,10.24,0,0,0,2.22-1.17,4.61,4.61,0,0,0,1.58-2.18c.06-.15.08,0,0,.12a5.6,5.6,0,0,1-.86,1.63,6.94,6.94,0,0,1-1.37,1.39,32.67,32.67,0,0,1-4.11,2.25A6.31,6.31,0,0,0,99.4,202a3.77,3.77,0,0,0,.72,3.89c.06,0,0,.14-.07.16a10.94,10.94,0,0,0-2.54.86,3.74,3.74,0,0,0-1.57,1.53,4.84,4.84,0,0,0,.8,4.75,8,8,0,0,0-2.58,1.3,3.45,3.45,0,0,0-1,1.71,4.15,4.15,0,0,0,1.35,4.15s0,0,0,.06h0v0a.06.06,0,0,1,0,0h0s-.86.61-.91.62,0,0,0,0A7.55,7.55,0,0,1,94.31,220.49Z" style="fill:#263238"></path><path d="M117.8,171.43l-17.7-8.64S117,150.25,125,146.48,133.55,150.59,117.8,171.43Z" style="fill:#455a64"></path><path d="M134,142.47c-2.78,1-3.63,2.92-2.89,5.26.83,2.62,8.51,8,11.87,6.45,2.9-1.33.77-8.23-.7-9.83A8.47,8.47,0,0,0,134,142.47Z" style="fill:#455a64"></path><path d="M132,147.17c.37,1,6,6.63,10.47,5.75,1.45-.29.23-8.28.23-8.28l.05-.62.62-8.55-10.65-4.8-1.53-.61s0,2.35,0,5.28c0,.13,0,.27,0,.41s0,.33,0,.48c0,.44,0,.88,0,1.33s0,.67,0,1,0,.71,0,1.06A54.76,54.76,0,0,0,132,147.17Z" style="fill:#eb9481"></path><path d="M131.15,135.34A17.19,17.19,0,0,0,142.71,144l.62-8.55-10.65-4.8-1.53-.61S131.14,132.41,131.15,135.34Z" style="fill:#263238"></path><path d="M154,122.69c1.47,15-7.34,17.55-10.57,17.87-2.93.28-12.95.88-16-13.87s3.49-20.17,10.17-21.17S152.49,107.71,154,122.69Z" style="fill:#eb9481"></path><path d="M150.21,118.94c-.36,0-.69-.07-1-.11a1.72,1.72,0,0,1-1-.32.53.53,0,0,1-.06-.65,1.33,1.33,0,0,1,1.27-.44,2,2,0,0,1,1.29.57A.57.57,0,0,1,150.21,118.94Z" style="fill:#263238"></path><path d="M140.1,120.33c.34-.08.65-.21,1-.32a1.65,1.65,0,0,0,.95-.51.53.53,0,0,0-.07-.65,1.32,1.32,0,0,0-1.33-.18,1.94,1.94,0,0,0-1.15.81A.57.57,0,0,0,140.1,120.33Z" style="fill:#263238"></path><path d="M143,123.79s-.07,0-.07.1c.16,1,.17,2.2-.71,2.65a0,0,0,1,0,0,0C143.32,126.3,143.29,124.72,143,123.79Z" style="fill:#263238"></path><path d="M141.94,122.83c-1.65.08-1.37,3.38.16,3.31S143.33,122.77,141.94,122.83Z" style="fill:#263238"></path><path d="M141.31,123.06c-.27.21-.53.57-.87.63s-.73-.25-1-.56c0,0-.06,0,0,0,0,.64.33,1.27,1,1.3s1-.56,1.13-1.21C141.54,123.14,141.42,123,141.31,123.06Z" style="fill:#263238"></path><path d="M148.6,122.87s.08,0,.08.08c0,1,.27,2.19,1.22,2.46,0,0,0,.06,0,.06C148.76,125.4,148.48,123.85,148.6,122.87Z" style="fill:#263238"></path><path d="M149.43,121.73c1.64-.24,2,3,.5,3.27S148.06,121.94,149.43,121.73Z" style="fill:#263238"></path><path d="M150.14,121.87c.28.15.58.43.89.42s.59-.41.78-.77c0,0,0,0,.05,0,.09.62,0,1.3-.63,1.49s-1-.32-1.23-.93C150,122,150,121.81,150.14,121.87Z" style="fill:#263238"></path><path d="M143.49,132.07c.25.23.51.55.88.57a2.77,2.77,0,0,0,1.09-.3,0,0,0,0,1,0,0,1.37,1.37,0,0,1-1.28.6,1.08,1.08,0,0,1-.84-.87C143.37,132.06,143.45,132,143.49,132.07Z" style="fill:#263238"></path><path d="M147.4,128a21.81,21.81,0,0,1,.42,2.23c0,.07-.16.11-.4.15a0,0,0,0,1,0,0,3.41,3.41,0,0,1-3.44-1c-.06-.06,0-.15.1-.11a5.12,5.12,0,0,0,3.2.6c0-.2-.69-2.55-.58-2.57a6.41,6.41,0,0,1,1.67.21c-.65-3.15-1.8-6.18-2.4-9.33a.1.1,0,0,1,.19-.06,52.39,52.39,0,0,1,3,9.94C149.23,128.47,147.7,128.07,147.4,128Z" style="fill:#263238"></path><path d="M147,130.37a3.62,3.62,0,0,1-1.32,1.3,1.65,1.65,0,0,1-1,.18c-.74-.1-.83-.76-.77-1.34a3.74,3.74,0,0,1,.22-.9A4.81,4.81,0,0,0,147,130.37Z" style="fill:#263238"></path><path d="M145.69,131.67a1.65,1.65,0,0,1-1,.18c-.74-.1-.83-.76-.77-1.34A1.7,1.7,0,0,1,145.69,131.67Z" style="fill:#ff97b8"></path><path d="M128.59,128c2.87.19,3.22-6.39,3.22-6.39s12-2.78,12.47-12.74a16.76,16.76,0,0,0,9,8.66s-1.07-10.82-9.79-12.41c0,0-10.91-3.25-16.4,5.57S126.66,127.87,128.59,128Z" style="fill:#263238"></path><path d="M144.28,108.14a11,11,0,0,1-.27,4.55,11.3,11.3,0,0,1-2.06,4.13,10.63,10.63,0,0,1-.77.87l-.4.43c-.14.13-.29.25-.44.37-.3.24-.6.5-.91.73s-.65.41-1,.6l-.49.3-.53.24-1,.47c-.72.25-1.46.46-2.18.66.68-.35,1.38-.62,2-1l1-.55.48-.27c.16-.1.31-.22.46-.32l.9-.65c.29-.23.56-.49.83-.73l.42-.36.37-.41a8.08,8.08,0,0,0,.72-.83,13.69,13.69,0,0,0,2.65-6A12.79,12.79,0,0,0,144.28,108.14Z" style="fill:#263238"></path><path d="M129.92,127.61s-3.33-4.67-5.45-3.47.42,8,2.94,8.88a2.54,2.54,0,0,0,3.39-1.41Z" style="fill:#eb9481"></path><path d="M125.24,126.06s0,.06,0,.07a6.39,6.39,0,0,1,3.37,4,1.4,1.4,0,0,0-2.1-.36s0,.1,0,.09a1.57,1.57,0,0,1,1.73.53,7.48,7.48,0,0,1,.84,1.38c.09.16.37.07.31-.11l0,0C129.42,129.37,127.65,126.26,125.24,126.06Z" style="fill:#263238"></path></g><g id="freepik--bread-2--inject-69"><path d="M420.2,430.07c-16.26,9.42-52.69,12.32-93.82,6.14s-75.08-19.64-87.86-33.44c-4-7.06-3.31-18.22.45-21.65a.69.69,0,0,1,.13-.11l.53-.38c14.81-10.66,52.93-14.22,96.26-7.71s78.6,21.06,89.68,35.58c.19.24.36.47.53.71a.07.07,0,0,1,0,.05C428.7,413.64,426,424.48,420.2,430.07Z" style="fill:#FA832E"></path><path d="M420.2,430.07a13.69,13.69,0,0,1-2.22,1.77c-13.33,8.43-53,12.58-92,6.73s-75.65-21.48-85.91-33.46a13.41,13.41,0,0,1-1.6-2.34c-4-7.06-3.31-18.22.45-21.65a.69.69,0,0,1,.13-.11l.53-.38a3.86,3.86,0,0,1,4.15.13c8.29,4.61,41.09,25.42,86.1,32.18s82.48-3.48,91.75-5.45a3.85,3.85,0,0,1,3.94,1c.19.24.36.47.53.71a.07.07,0,0,1,0,.05C428.7,413.64,426,424.48,420.2,430.07Z" style="fill:#FA832E"></path><path d="M420.2,430.07a13.69,13.69,0,0,1-2.22,1.77c-13.33,8.43-53,12.58-92,6.73s-75.65-21.48-85.91-33.46a13.41,13.41,0,0,1-1.6-2.34c-4-7.06-3.31-18.22.45-21.65a.69.69,0,0,1,.13-.11l.53-.38a3.86,3.86,0,0,1,4.15.13c8.29,4.61,41.09,25.42,86.1,32.18s82.48-3.48,91.75-5.45a3.85,3.85,0,0,1,3.94,1c.19.24.36.47.53.71a.07.07,0,0,1,0,.05C428.7,413.64,426,424.48,420.2,430.07Z" style="opacity:0.2"></path><path d="M416.42,422.39a4.37,4.37,0,1,1,2.08-5.82A4.37,4.37,0,0,1,416.42,422.39Z" style="opacity:0.1"></path><path d="M262.06,406.84a4.37,4.37,0,1,1,2.68-5.57A4.38,4.38,0,0,1,262.06,406.84Z" style="opacity:0.1"></path><path d="M409.11,431.66a3.78,3.78,0,1,1,1.8-5A3.78,3.78,0,0,1,409.11,431.66Z" style="opacity:0.1"></path><path d="M404.62,420.59a3.21,3.21,0,1,1,1.52-4.27A3.21,3.21,0,0,1,404.62,420.59Z" style="opacity:0.1"></path><path d="M300.23,382a3.21,3.21,0,1,1-.69-4.49A3.21,3.21,0,0,1,300.23,382Z" style="opacity:0.1"></path><path d="M249.89,400.07a3.2,3.2,0,1,1,2-4.08A3.21,3.21,0,0,1,249.89,400.07Z" style="opacity:0.1"></path><path d="M380.5,406.46a3.21,3.21,0,1,1-.69-4.48A3.2,3.2,0,0,1,380.5,406.46Z" style="opacity:0.1"></path></g><g id="freepik--Burger--inject-69"><path d="M245.18,353.45c-.67-5.31,1-11.41,18-17.27a300.38,300.38,0,0,1,75.66-16.27,310.26,310.26,0,0,1,78.2,3.59c18.13,2.94,21.32,8.63,22,13.95s-.43,10.26-9.38,12.63c-13.84,3.68-43.44-1.82-87-.26-43,5.59-70.67,15.82-85.12,14.47C248.17,363.43,245.87,358.84,245.18,353.45Z" style="fill:#FA832E"></path><path d="M245.18,353.45c-.67-5.31,1-11.41,18-17.27a300.38,300.38,0,0,1,75.66-16.27,310.26,310.26,0,0,1,78.2,3.59c18.13,2.94,21.32,8.63,22,13.95s-.43,10.26-9.38,12.63c-13.84,3.68-43.44-1.82-87-.26-43,5.59-70.67,15.82-85.12,14.47C248.17,363.43,245.87,358.84,245.18,353.45Z" style="opacity:0.4"></path><path d="M438.78,339c.67,5.32-1,11.41-18,17.27a299.84,299.84,0,0,1-75.66,16.27,309.35,309.35,0,0,1-78.2-3.59c-18.12-2.94-21.31-8.63-22-13.95s.43-10.25,9.39-12.63c13.83-3.68,43.43,1.82,87,.27,43-5.6,70.68-15.82,85.13-14.48C435.79,329,438.1,333.56,438.78,339Z" style="fill:#FA832E"></path><path d="M438.78,339c.67,5.32-1,11.41-18,17.27a299.84,299.84,0,0,1-75.66,16.27,309.35,309.35,0,0,1-78.2-3.59c-18.12-2.94-21.31-8.63-22-13.95s.43-10.25,9.39-12.63c13.83-3.68,43.43,1.82,87,.27,43-5.6,70.68-15.82,85.13-14.48C435.79,329,438.1,333.56,438.78,339Z" style="opacity:0.5"></path></g><g id="freepik--slice-of-cheese--inject-69"><path d="M397.35,328.11c-23.14,9.72-44.18,22-50.25,22.62s-29.13-7.29-53.73-12.26c-23.31-4.72-48.37-6.47-47.76-8.75,1.25-4.68,80.48-34.2,95.84-35.73s98.85,11.77,101,16.11C443.5,312.22,419.27,318.88,397.35,328.11Z" style="fill:#FA832E"></path><path d="M255.21,328.37c6.33.5,12.64,1.26,18.94,2.05s12.58,1.85,18.83,3c12.55,2.23,24.77,5.91,36.95,9.43,3,.91,6.07,1.82,9.12,2.65,1.51.4,3,.8,4.55,1.08a8.23,8.23,0,0,0,2,.18.06.06,0,0,1,.06,0l.26-.13.54-.25,1.07-.52c5.72-2.75,11.41-5.56,17.17-8.22,11.52-5.32,23-10.86,34.87-15.32-5.81,2.54-11.48,5.41-17.16,8.23l-17,8.48c-5.65,2.87-11.37,5.63-17,8.47l-1.07.52-.54.27-.27.13a4.32,4.32,0,0,1-.51.16,5.8,5.8,0,0,1-1.44,0c-.44,0-.85-.1-1.26-.16-1.61-.29-3.16-.68-4.71-1.07-3.1-.81-6.15-1.7-9.19-2.58-12.15-3.69-24.29-7.31-36.69-9.85-6.19-1.33-12.42-2.48-18.68-3.53S261.49,329.32,255.21,328.37Z" style="fill:#fff"></path></g><g id="freepik--Lettuce--inject-69"><path d="M337.68,234.25c-16.71-8-18.13-1.4-25.1.8S299.5,218.7,286.8,222.61s.35,1.56-3.42,6.93-23.93-15.23-28.4-8,3.31,9.39.5,11.29-10.3-1.08-13.26,2.9,7,3.64,9.09,8.06-4.26,9.42,1.49,14c6.15,4.91,11.59-6.36,18.77-2.31s1.29,8.17,8.75,13.51,11.17-3.21,16-2.44,6.32,7.1,11.21,8.28,8.66-5.11,13.46-4.58,3.78,7.08,12.1,8.79,6.92-5.64,10.26-5.75,3.72,5,7.91,5.62,4.85-4.91,8.7-4.52,6.73,8.17,12.67,7.62,7.14-7.07,11.21-8.12,8.19,5,15.08,3.38,4.57-5.59,10.07-7,7.81,4.94,17.65,3.15c6.23-1.14,1.75-8.75,4.19-10.68s14.71,7.1,17.63-.42-12.63-10.1-12.91-12.69,2.75-7.75-4.25-12.18-9.69,4.16-15,5.44-2.54-7.52-12.8-8.06-11.56,6.6-14.67,6.54-8.93-9.14-16.26-10.9-4.82,5.27-11.66,5.95c-4.95.5-3.87-5.21-11.14-6.13S340.69,235.7,337.68,234.25Z" style="fill:#455a64"></path><path d="M327.65,251.91c-16.25-5.46-16.6,1.4-22.61,4.69s-14.13-14.35-25.09-8.47.54,1.51-2.12,7.47S254,244.05,251,252s4.32,8.89,2,11.22-9.48.52-11.6,5,6.89,2.56,9.36,6.66-2.54,10.1,3.31,13.81c6.27,4,9.61-8.16,16.68-5.22s2.31,8,9.81,12.17,9.67-4.94,14.15-4.91,6.71,6.12,11.31,6.54,7.13-6.45,11.54-6.66,4.42,6.5,12.2,6.92,5.47-6.71,8.48-7.34,4.06,4.4,7.94,4.4,3.72-5.66,7.25-5.87,7.24,7.13,12.54,5.66,5.48-8.18,9-9.86,8.13,3.78,14.14,1.05,3.35-6.3,8.12-8.61,7.77,3.74,16.43.42c5.48-2.1.36-9,2.3-11.33s14.31,4.82,15.9-3.15-12.85-8.16-13.46-10.71,1.4-8.19-5.56-11.54-8.19,5.66-12.78,7.76-3.36-7.13-12.72-6.08-9.54,8.39-12.37,8.81-9.36-7.77-16.25-8.39-3.63,6-9.72,7.76c-4.41,1.26-4.24-4.62-10.95-4.41S330.59,252.9,327.65,251.91Z" style="fill:#37474f"></path></g><g id="freepik--Tomatoes--inject-69"><path d="M402.39,182c-13-5.89-31.34-4.27-39.89,8.59s7,29.55,19.72,35.28,33.49,6.16,41-6.49C429.64,208.45,425.13,192.39,402.39,182Z" style="fill:#FA832E"></path><path d="M402.39,182c-13-5.89-31.34-4.27-39.89,8.59s7,29.55,19.72,35.28,33.49,6.16,41-6.49C429.64,208.45,425.13,192.39,402.39,182Z" style="opacity:0.1"></path><path d="M400.76,186.16c-10.59-4.82-25.6-3.5-32.59,7s5.72,24.14,16.11,28.82,27.36,5,33.46-5.3C423,207.73,419.34,194.61,400.76,186.16Z" style="fill:#FA832E"></path><path d="M405.93,203.48c0,.84,3.7,2.19,3.69.58C409.61,202.7,406,202.39,405.93,203.48Z" style="fill:#fff"></path><path d="M396.93,214.25c-1,0-1,3.13.94,3C399.49,217.21,398.26,214.23,396.93,214.25Z" style="fill:#fff"></path><path d="M406.1,217.25c-.74.49,1.41,3.42,2.74,2.44C410,218.87,407.05,216.62,406.1,217.25Z" style="fill:#fff"></path><path d="M411.55,200.87c.74.72,4-.47,2.48-1.8C412.8,198,410.58,199.94,411.55,200.87Z" style="fill:#fff"></path><path d="M389.82,191.72c1-.15.34-3.32-1.49-3C386.8,189,388.55,191.91,389.82,191.72Z" style="fill:#fff"></path><path d="M377.39,205.3c0-.85-3.78-2.09-3.69-.46C373.78,206.2,377.4,206.4,377.39,205.3Z" style="fill:#fff"></path><path d="M382.44,209.9c-.47-.83-4.2-.64-3.22.93C380,212.15,383.05,211,382.44,209.9Z" style="fill:#fff"></path><path d="M390.48,199.34c1,.29,2.37-2.42.38-2.91C389.2,196,389.14,199,390.48,199.34Z" style="fill:#fff"></path><path d="M376.09,184.73s12.78,13.34,11.17,16.51-23-1.05-23.11-3.21S369.77,185.41,376.09,184.73Z" style="fill:#FA832E"></path><path d="M376.09,184.73s12.78,13.34,11.17,16.51-23-1.05-23.11-3.21S369.77,185.41,376.09,184.73Z" style="opacity:0.1"></path><path d="M374.94,217.38s11.32-10.4,15.79-9,7.54,19,5,19.05S378.19,222.61,374.94,217.38Z" style="fill:#FA832E"></path><path d="M374.94,217.38s11.32-10.4,15.79-9,7.54,19,5,19.05S378.19,222.61,374.94,217.38Z" style="opacity:0.1"></path><path d="M415.94,223.76s-14.45-12.21-13.39-15.6,22.39-1.38,22.84.79S421.94,222.39,415.94,223.76Z" style="fill:#FA832E"></path><path d="M415.94,223.76s-14.45-12.21-13.39-15.6,22.39-1.38,22.84.79S421.94,222.39,415.94,223.76Z" style="opacity:0.1"></path><path d="M415.33,192.88s-12.21,9.68-16.62,8.11-6.22-19.09-3.62-19S412.42,187.56,415.33,192.88Z" style="fill:#FA832E"></path><path d="M415.33,192.88s-12.21,9.68-16.62,8.11-6.22-19.09-3.62-19S412.42,187.56,415.33,192.88Z" style="opacity:0.1"></path><path d="M295,210.21c13.09-5,26.46-19.82,26.37-36s-20.79-17.52-33.61-12.55-29.11,20-28.29,35.18C260.22,210,272.07,219,295,210.21Z" style="fill:#FA832E"></path><path d="M295,210.21c13.09-5,26.46-19.82,26.37-36s-20.79-17.52-33.61-12.55-29.11,20-28.29,35.18C260.22,210,272.07,219,295,210.21Z" style="opacity:0.1"></path><path d="M294.16,205.85c10.69-4.1,21.61-16.19,21.55-29.41s-17-14.32-27.47-10.25-23.78,16.3-23.11,28.73C265.71,205.7,275.39,213.06,294.16,205.85Z" style="fill:#FA832E"></path><path d="M281.14,196.36c-.41-.67-4,1-3.15,2.28C278.7,199.67,281.67,197.23,281.14,196.36Z" style="fill:#fff"></path><path d="M282.49,181.46c.78-.77-.87-3.14-2.31-1.64C279,181.08,281.47,182.45,282.49,181.46Z" style="fill:#fff"></path><path d="M273.84,185.91c.31-.91-2.87-1.59-3.39.15C270,187.52,273.43,187.1,273.84,185.91Z" style="fill:#fff"></path><path d="M278.15,202.5c-.94,0-2.82,3.28-1,3.22C278.7,205.66,279.39,202.51,278.15,202.5Z" style="fill:#fff"></path><path d="M299.72,193.51c-.68.84,1.46,2.8,2.7,1.19C303.45,193.34,300.6,192.43,299.72,193.51Z" style="fill:#fff"></path><path d="M302.26,173.93c.45.65,4-1.19,3.09-2.37C304.58,170.57,301.68,173.09,302.26,173.93Z" style="fill:#fff"></path><path d="M296,174.12c.8.29,3.58-2.61,2-3.09C296.65,170.62,294.92,173.74,296,174.12Z" style="fill:#fff"></path><path d="M295.24,188.16c-.95.54-.58,3.59,1.22,2.51C298,189.76,296.48,187.46,295.24,188.16Z" style="fill:#fff"></path><path d="M314,188.76s-16.83-.82-17.23-4.44,18.33-16.14,19.54-14.57S318.51,183.58,314,188.76Z" style="fill:#FA832E"></path><path d="M314,188.76s-16.83-.82-17.23-4.44,18.33-16.14,19.54-14.57S318.51,183.58,314,188.76Z" style="opacity:0.1"></path><path d="M297.87,162.84s-3.35,16.34-7.51,18.58-15.71-9-13.76-11S292.63,161.23,297.87,162.84Z" style="fill:#FA832E"></path><path d="M297.87,162.84s-3.35,16.34-7.51,18.58-15.71-9-13.76-11S292.63,161.23,297.87,162.84Z" style="opacity:0.1"></path><path d="M262.84,188.17s17.53-1.28,18.47,2.11-16.58,17.56-18.07,16.22S258.91,193.64,262.84,188.17Z" style="fill:#FA832E"></path><path d="M262.84,188.17s17.53-1.28,18.47,2.11-16.58,17.56-18.07,16.22S258.91,193.64,262.84,188.17Z" style="opacity:0.1"></path><path d="M279.39,211.43S283.79,195,288,193s14.75,10.07,12.7,12S284.41,213.37,279.39,211.43Z" style="fill:#FA832E"></path><path d="M279.39,211.43S283.79,195,288,193s14.75,10.07,12.7,12S284.41,213.37,279.39,211.43Z" style="opacity:0.1"></path><path d="M319.36,251.24c13.38,3.09,33-.57,42.85-12s-5.57-22.86-18.7-25.84-35.14-.68-43.84,10.45C292.12,233.5,295.9,245.83,319.36,251.24Z" style="fill:#FA832E"></path><path d="M319.36,251.24c13.38,3.09,33-.57,42.85-12s-5.57-22.86-18.7-25.84-35.14-.68-43.84,10.45C292.12,233.5,295.9,245.83,319.36,251.24Z" style="opacity:0.1"></path><path d="M321.35,247.73c10.93,2.52,26.94-.47,35-9.81s-4.56-18.67-15.28-21.11-28.71-.55-35.82,8.54C299.09,233.23,302.18,243.31,321.35,247.73Z" style="fill:#FA832E"></path><path d="M317,234.46c.09-.68-3.79-1.29-3.88,0C313,235.56,316.84,235.34,317,234.46Z" style="fill:#fff"></path><path d="M327.18,224.65a1.23,1.23,0,0,0-.81-2.32C324.64,222.6,325.76,224.84,327.18,224.65Z" style="fill:#fff"></path><path d="M317.64,223.41c.81-.48-1.28-2.57-2.76-1.61C313.64,222.61,316.59,224,317.64,223.41Z" style="fill:#fff"></path><path d="M310.84,237.27c-.75-.48-4.23.89-2.76,1.77C309.32,239.77,311.8,237.9,310.84,237.27Z" style="fill:#fff"></path><path d="M333.31,241.85c-1.05.25-.57,2.72,1.39,2.2C336.34,243.62,334.66,241.54,333.31,241.85Z" style="fill:#fff"></path><path d="M347.34,229.36c0,.68,3.88,1.19,3.88-.11C351.22,228.16,347.4,228.47,347.34,229.36Z" style="fill:#fff"></path><path d="M342.27,226.3c.45.61,4.41,0,3.48-1.16C345,224.19,341.69,225.51,342.27,226.3Z" style="fill:#fff"></path><path d="M333.08,235.82c-1.08-.1-2.66,2.24-.59,2.38C334.23,238.32,334.48,236,333.08,235.82Z" style="fill:#fff"></path><path d="M347.43,245.72s-12.72-9.09-10.81-11.84,24.31-2.09,24.3-.38S354.18,244.36,347.43,245.72Z" style="fill:#FA832E"></path><path d="M347.43,245.72s-12.72-9.09-10.81-11.84,24.31-2.09,24.3-.38S354.18,244.36,347.43,245.72Z" style="opacity:0.1"></path><path d="M350.7,219.33s-12.67,9.8-17.32,9.27-6.8-14.28-4.07-14.67S347.58,215.54,350.7,219.33Z" style="fill:#FA832E"></path><path d="M350.7,219.33s-12.67,9.8-17.32,9.27-6.8-14.28-4.07-14.67S347.58,215.54,350.7,219.33Z" style="opacity:0.1"></path><path d="M307.61,219.44s14.56,8,13.22,10.82-23.82,4-24.17,2.29S301.16,221.3,307.61,219.44Z" style="fill:#FA832E"></path><path d="M307.61,219.44s14.56,8,13.22,10.82-23.82,4-24.17,2.29S301.16,221.3,307.61,219.44Z" style="opacity:0.1"></path><path d="M306.33,244.18s13.55-9.34,18.13-8.64,5.4,14.55,2.64,14.84S309.07,248.09,306.33,244.18Z" style="fill:#FA832E"></path><path d="M306.33,244.18s13.55-9.34,18.13-8.64,5.4,14.55,2.64,14.84S309.07,248.09,306.33,244.18Z" style="opacity:0.1"></path></g><g id="freepik--bread-1--inject-69"><path d="M434.42,172.74c-16.53,24.53-80.94,12.06-100.31,7.15s-81.94-24.61-84.79-54.06,49-78,114.07-61.47S450.94,148.2,434.42,172.74Z" style="fill:#FA832E"></path><path d="M434.42,172.74c-16.53,24.53-80.94,12.06-100.31,7.15s-81.94-24.61-84.79-54.06,49-78,114.07-61.47S450.94,148.2,434.42,172.74Z" style="opacity:0.2"></path><path d="M430.91,160.14A4.37,4.37,0,1,1,430,154,4.37,4.37,0,0,1,430.91,160.14Z" style="opacity:0.1"></path><path d="M350,163.73a4.37,4.37,0,1,1-.94-6.11A4.37,4.37,0,0,1,350,163.73Z" style="opacity:0.1"></path><path d="M428.89,171.77a3.78,3.78,0,1,1-.81-5.29A3.78,3.78,0,0,1,428.89,171.77Z" style="opacity:0.1"></path><path d="M263.77,124.88a3.78,3.78,0,1,1-.81-5.28A3.77,3.77,0,0,1,263.77,124.88Z" style="opacity:0.1"></path><path d="M419.67,164.17a3.21,3.21,0,1,1-.69-4.48A3.21,3.21,0,0,1,419.67,164.17Z" style="opacity:0.1"></path><path d="M323.34,77.08a3.21,3.21,0,1,1-.69-4.48A3.2,3.2,0,0,1,323.34,77.08Z" style="opacity:0.1"></path><path d="M336.18,165a3.21,3.21,0,1,1-.69-4.48A3.2,3.2,0,0,1,336.18,165Z" style="opacity:0.1"></path><path d="M267.16,137.77a3.21,3.21,0,1,1-.69-4.48A3.21,3.21,0,0,1,267.16,137.77Z" style="opacity:0.1"></path><path d="M351.35,129.72c-1.19-.19-4.27,4.64-1.94,4.88C351.36,134.81,352.91,130,351.35,129.72Z" style="fill:#fff"></path><path d="M387.87,83.6c.71,1,6.3-.26,4.83-2.08C391.46,80,386.94,82.33,387.87,83.6Z" style="fill:#fff"></path><path d="M382.58,126.41c-1,.64-.18,6.31,1.74,5C385.93,130.24,383.91,125.57,382.58,126.41Z" style="fill:#fff"></path><path d="M277.55,106.4c-1.2-.19-4.28,4.64-1.95,4.88C277.55,111.49,279.1,106.64,277.55,106.4Z" style="fill:#fff"></path><path d="M320.06,112.14c-.75-1-6.3.48-4.76,2.25C316.59,115.87,321,113.38,320.06,112.14Z" style="fill:#fff"></path><path d="M403,103.34c-.66,1,2.46,5.81,3.65,3.79C407.63,105.43,403.85,102,403,103.34Z" style="fill:#fff"></path><path d="M396.05,114.16c-1.18.28-2.2,5.91.05,5.25C398,118.86,397.58,113.79,396.05,114.16Z" style="fill:#fff"></path><path d="M376.25,86.31c-.76,1,1.91,6,3.28,4.11C380.67,88.83,377.23,85.08,376.25,86.31Z" style="fill:#fff"></path><path d="M277.32,95c-.59-1.06-6.29-.51-5.05,1.48C273.32,98.15,278.09,96.38,277.32,95Z" style="fill:#fff"></path><path d="M411.12,152.26c-1.17.34-1.9,6,.31,5.25C413.28,156.87,412.63,151.82,411.12,152.26Z" style="fill:#fff"></path><path d="M429.67,132.59c-.74,1,2,6,3.36,4C434.15,135,430.62,131.33,429.67,132.59Z" style="fill:#fff"></path><path d="M293.53,142.66c-1.08-.56-5.54,3-3.41,4C291.9,147.49,294.93,143.39,293.53,142.66Z" style="fill:#fff"></path><path d="M335.22,68.06c.07-1.21-5-3.85-5-1.5C330.15,68.52,335.11,69.64,335.22,68.06Z" style="fill:#fff"></path><path d="M346.72,79.33c-.87-.85-6.18,1.27-4.43,2.83C343.76,83.47,347.84,80.43,346.72,79.33Z" style="fill:#fff"></path><path d="M368.7,158.67c-1.14.41-1.52,6.12.64,5.21C371.15,163.12,370.18,158.13,368.7,158.67Z" style="fill:#fff"></path><path d="M283.34,106.43c-1.14.41-1.52,6.13.64,5.22C285.79,110.89,284.82,105.89,283.34,106.43Z" style="fill:#fff"></path><path d="M362.27,166.59c-1.21.1-3.08,5.52-.76,5.21C363.46,171.54,363.84,166.46,362.27,166.59Z" style="fill:#fff"></path></g></svg>