<svg xmlns="http://www.w3.org/2000/svg" width="30" height="27.525" viewBox="0 0 30 27.525">
  <path id="Icon_material-favorite-border" data-name="Icon material-favorite-border" d="M24.75,4.5A8.983,8.983,0,0,0,18,7.635,8.983,8.983,0,0,0,11.25,4.5,8.17,8.17,0,0,0,3,12.75c0,5.67,5.1,10.29,12.825,17.31L18,32.025l2.175-1.98C27.9,23.04,33,18.42,33,12.75A8.17,8.17,0,0,0,24.75,4.5Zm-6.6,23.325-.15.15-.15-.15C10.71,21.36,6,17.085,6,12.75A5.127,5.127,0,0,1,11.25,7.5,5.864,5.864,0,0,1,16.6,11.04H19.41A5.827,5.827,0,0,1,24.75,7.5,5.127,5.127,0,0,1,30,12.75C30,17.085,25.29,21.36,18.15,27.825Z" transform="translate(-3 -4.5)" fill="#fbf9f9"/>
</svg>
