<svg xmlns="http://www.w3.org/2000/svg" width="63.994" height="64" viewBox="0 0 63.994 64">
  <g id="home-active" transform="translate(0 0.001)">
    <path id="Path_31" data-name="Path 31" d="M62.274,27.836l0,0L36.163,1.726a5.891,5.891,0,0,0-8.333,0L1.737,27.818l-.026.027A5.889,5.889,0,0,0,5.632,37.883q.09.009.182.009H6.854V57.1a6.9,6.9,0,0,0,6.9,6.9H23.964a1.875,1.875,0,0,0,1.875-1.875V47.062a3.149,3.149,0,0,1,3.146-3.146h6.024a3.149,3.149,0,0,1,3.146,3.146V62.125A1.875,1.875,0,0,0,40.03,64H50.244a6.9,6.9,0,0,0,6.9-6.9V37.892h.965a5.892,5.892,0,0,0,4.169-10.056Zm0,0" fill="#fbf9f9"/>
  </g>
</svg>
