<svg xmlns="http://www.w3.org/2000/svg" width="23.072" height="23" viewBox="0 0 23.072 23">
  <g id="home-unactive" transform="translate(0.035 0.501)" opacity="0.5">
    <path id="Path_22" data-name="Path 22" d="M21.906,9.568h0L12.93.593a2.024,2.024,0,0,0-2.864,0L1.1,9.562l-.009.009a2.024,2.024,0,0,0,1.347,3.453h.42v6.6A2.376,2.376,0,0,0,5.226,22H8.737a.644.644,0,0,0,.644-.644V16.176a1.082,1.082,0,0,1,1.081-1.081h2.071a1.082,1.082,0,0,1,1.078,1.081v5.178a.644.644,0,0,0,.644.644h3.511a2.376,2.376,0,0,0,2.371-2.371v-6.6h.338a2.024,2.024,0,0,0,1.433-3.457Zm-.913,1.952a.732.732,0,0,1-.521.216H19.5a.644.644,0,0,0-.644.644v7.248a1.082,1.082,0,0,1-1.081,1.081H14.9V16.176a2.376,2.376,0,0,0-2.371-2.371H10.463a2.376,2.376,0,0,0-2.371,2.371v4.533H5.226a1.082,1.082,0,0,1-1.081-1.081V12.38a.644.644,0,0,0-.644-.644H2.51A.736.736,0,0,1,2,10.48H2L10.979,1.5a.736.736,0,0,1,1.041,0L21,10.48h0a.737.737,0,0,1,0,1.04Zm0,0" transform="translate(0)" fill="#be4f00" stroke="#be4f00" stroke-width="1"/>
  </g>
</svg>
