<svg xmlns="http://www.w3.org/2000/svg" width="15.037" height="24.121" viewBox="0 0 15.037 24.121">
  <g id="save-cookbook-active" transform="translate(-82.413 0)">
    <g id="Group_604" data-name="Group 604" transform="translate(82.413 0)">
      <path id="Path_28" data-name="Path 28" d="M176.515.708a.71.71,0,0,0-1.023-.632l-7.621,3.81h8.643Z" transform="translate(-164.506 0)" fill="#fa832e"/>
      <path id="Path_29" data-name="Path 29" d="M211.292,238.892a2.325,2.325,0,0,0-2.211,1.614H213.5A2.325,2.325,0,0,0,211.292,238.892Z" transform="translate(-203.773 -227.638)" fill="#fa832e"/>
      <path id="Path_30" data-name="Path 30" d="M110.744,112.492H97.12a.707.707,0,0,0-.707.707v17.408a.707.707,0,0,0,.707.707h13.624a.707.707,0,0,0,.707-.707V113.2a.707.707,0,0,0-.707-.707Zm-5.3,15.794h-3.028a.707.707,0,0,1,0-1.413h3.028a.707.707,0,0,1,0,1.413Zm2.271-3.028h-7.569a.707.707,0,0,1,0-1.413h7.569A.707.707,0,0,1,107.716,125.259Zm0-3.784h-7.569a.707.707,0,0,1-.707-.707.723.723,0,0,1,.825-.707,3.744,3.744,0,0,1,2.96-2.96.715.715,0,1,1,1.413,0,3.744,3.744,0,0,1,2.96,2.96A.711.711,0,1,1,107.716,121.474Z" transform="translate(-96.413 -107.193)" fill="#fa832e"/>
    </g>
  </g>
</svg>
