<svg xmlns="http://www.w3.org/2000/svg" width="15.037" height="24.121" viewBox="0 0 15.037 24.121">
  <g id="save-cookbook-unactive" transform="translate(-96.4 5.004)">
    <g id="Group_452" data-name="Group 452" transform="translate(96.4 -5.004)">
      <path id="Path_24" data-name="Path 24" d="M169.007,196.669h-.118a3.744,3.744,0,0,0-2.96-2.96.715.715,0,1,0-1.413,0,3.744,3.744,0,0,0-2.96,2.96.711.711,0,1,0-.118,1.413h7.569a.707.707,0,0,0,0-1.413Zm-6,0a2.326,2.326,0,0,1,4.422,0Z" transform="translate(-157.703 -183.801)" fill="#a27878"/>
      <path id="Path_25" data-name="Path 25" d="M169.013,353.467h-7.569a.707.707,0,1,0,0,1.413h7.569a.707.707,0,1,0,0-1.413Z" transform="translate(-157.709 -336.814)" fill="#a27878"/>
      <path id="Path_26" data-name="Path 26" d="M212.675,417.733h-3.028a.707.707,0,1,0,0,1.413h3.028a.707.707,0,1,0,0-1.413Z" transform="translate(-203.642 -398.053)" fill="#a27878"/>
      <path id="Path_27" data-name="Path 27" d="M110.731,5.295H108.41V.7a.707.707,0,0,0-1.023-.633l-10.6,5.3A.707.707,0,0,0,96.4,6V23.41a.707.707,0,0,0,.707.707h13.624a.707.707,0,0,0,.707-.707V6A.707.707,0,0,0,110.731,5.295ZM107,1.847V5.295h-6.9ZM110.024,22.7H97.813v-16h12.211Z" transform="translate(-96.4 0.004)" fill="#a27878"/>
    </g>
  </g>
</svg>
