<svg xmlns="http://www.w3.org/2000/svg" width="29.25" height="29.25" viewBox="0 0 29.25 29.25">
  <path id="Icon_ionic-md-timer" data-name="Icon ionic-md-timer" d="M16.376,26.128A1.624,1.624,0,1,0,18,24.5,1.629,1.629,0,0,0,16.376,26.128Zm0-22.753v6.5h3.248V6.757A11.369,11.369,0,1,1,6.623,18,11.255,11.255,0,0,1,9.19,10.814L18,19.624l2.292-2.292L9.239,6.286v.035A14.593,14.593,0,1,0,18,3.375ZM27.752,18a1.624,1.624,0,1,0-1.624,1.624A1.629,1.629,0,0,0,27.752,18Zm-19.5,0a1.624,1.624,0,1,0,1.624-1.624A1.629,1.629,0,0,0,8.248,18Z" transform="translate(-3.375 -3.375)" fill="#fbf9f9"/>
</svg>
